<svg width="46" height="38" viewBox="0 0 46 38" fill="none" xmlns="http://www.w3.org/2000/svg">
<rect width="46" height="38" rx="12" fill="#00FF60"/>
<path fill-rule="evenodd" clip-rule="evenodd" d="M15.5127 9.62428C15.0851 10.1829 15.1666 11.0025 15.6947 11.455L31.3203 24.8386C31.8485 25.291 32.6234 25.2051 33.0512 24.6464C33.4789 24.0876 33.3976 23.2683 32.8694 22.8158L17.2436 9.43182C17.0158 9.23666 16.742 9.14185 16.47 9.14185C16.1114 9.14185 15.756 9.30663 15.5127 9.62428Z" fill="black"/>
<path fill-rule="evenodd" clip-rule="evenodd" d="M32.0963 25.1277C31.9083 25.1277 31.7175 25.083 31.5375 24.9886C30.9147 24.6615 30.6607 23.8625 30.9696 23.2038L35.4981 13.5564C35.8072 12.8977 36.5626 12.6288 37.1855 12.9559C37.8083 13.2828 38.0624 14.0819 37.7534 14.7405L33.2249 24.388C33.005 24.8565 32.5594 25.1277 32.0963 25.1277Z" fill="black"/>
<path fill-rule="evenodd" clip-rule="evenodd" d="M8.25826 29.3C8.07025 29.3 7.87942 29.2552 7.69946 29.1609C7.07664 28.8338 6.82247 28.0347 7.13153 27.376L15.3417 9.88486C15.6509 9.22614 16.4063 8.95717 17.0291 9.28419C17.6519 9.61121 17.9062 10.4103 17.5971 11.069L9.38688 28.5603C9.16693 29.0287 8.72138 29.3 8.25826 29.3Z" fill="black"/>
<path fill-rule="evenodd" clip-rule="evenodd" d="M36.0997 12.9376L7.78554 26.8071C7.16876 27.1093 6.90036 27.8829 7.18607 28.5351C7.47151 29.1875 8.20317 29.4713 8.81981 29.1693L37.1338 15.2997C37.7507 14.9975 38.019 14.2239 37.7336 13.5716C37.5253 13.0964 37.0807 12.8167 36.6161 12.8167C36.443 12.8168 36.267 12.8555 36.0997 12.9376Z" fill="black"/>
</svg>
