<svg width="332" height="180" viewBox="0 0 332 180" fill="none" xmlns="http://www.w3.org/2000/svg">
<g filter="url(#filter0_d_4_89)">
<rect x="49" y="17" width="239" height="138" rx="29" fill="white"/>
</g>
<path d="M99.7763 123V111.364H103.708C104.617 111.364 105.363 111.519 105.947 111.83C106.53 112.136 106.962 112.559 107.242 113.097C107.522 113.634 107.663 114.246 107.663 114.932C107.663 115.617 107.522 116.225 107.242 116.756C106.962 117.286 106.532 117.703 105.952 118.006C105.373 118.305 104.632 118.455 103.731 118.455H100.549V117.182H103.685C104.307 117.182 104.807 117.091 105.185 116.909C105.568 116.727 105.844 116.47 106.015 116.136C106.189 115.799 106.276 115.398 106.276 114.932C106.276 114.466 106.189 114.059 106.015 113.71C105.841 113.362 105.562 113.093 105.18 112.903C104.797 112.71 104.291 112.614 103.663 112.614H101.185V123H99.7763ZM105.254 117.773L108.117 123H106.481L103.663 117.773H105.254ZM113.394 123.182C112.553 123.182 111.828 122.996 111.218 122.625C110.612 122.25 110.144 121.727 109.815 121.057C109.489 120.383 109.326 119.598 109.326 118.705C109.326 117.811 109.489 117.023 109.815 116.341C110.144 115.655 110.603 115.121 111.19 114.739C111.781 114.352 112.47 114.159 113.258 114.159C113.712 114.159 114.161 114.235 114.604 114.386C115.048 114.538 115.451 114.784 115.815 115.125C116.178 115.462 116.468 115.909 116.684 116.466C116.9 117.023 117.008 117.708 117.008 118.523V119.091H110.281V117.932H115.644C115.644 117.439 115.546 117 115.349 116.614C115.156 116.227 114.879 115.922 114.519 115.699C114.163 115.475 113.743 115.364 113.258 115.364C112.724 115.364 112.262 115.496 111.871 115.761C111.485 116.023 111.188 116.364 110.979 116.784C110.771 117.205 110.667 117.655 110.667 118.136V118.909C110.667 119.568 110.781 120.127 111.008 120.585C111.239 121.04 111.559 121.386 111.968 121.625C112.377 121.86 112.853 121.977 113.394 121.977C113.746 121.977 114.065 121.928 114.349 121.83C114.637 121.727 114.885 121.576 115.093 121.375C115.301 121.17 115.462 120.917 115.576 120.614L116.871 120.977C116.735 121.417 116.506 121.803 116.184 122.136C115.862 122.466 115.464 122.723 114.991 122.909C114.517 123.091 113.985 123.182 113.394 123.182ZM122.343 123.182C121.616 123.182 120.974 122.998 120.417 122.631C119.86 122.259 119.424 121.737 119.11 121.062C118.796 120.384 118.638 119.583 118.638 118.659C118.638 117.742 118.796 116.947 119.11 116.273C119.424 115.598 119.862 115.078 120.423 114.71C120.983 114.343 121.631 114.159 122.366 114.159C122.934 114.159 123.383 114.254 123.712 114.443C124.046 114.629 124.299 114.841 124.474 115.08C124.652 115.314 124.79 115.508 124.888 115.659H125.002V111.364H126.343V123H125.048V121.659H124.888C124.79 121.818 124.65 122.019 124.468 122.261C124.286 122.5 124.027 122.714 123.69 122.903C123.353 123.089 122.904 123.182 122.343 123.182ZM122.525 121.977C123.063 121.977 123.517 121.837 123.888 121.557C124.26 121.273 124.542 120.881 124.735 120.381C124.928 119.877 125.025 119.295 125.025 118.636C125.025 117.985 124.93 117.415 124.741 116.926C124.551 116.434 124.271 116.051 123.9 115.778C123.529 115.502 123.07 115.364 122.525 115.364C121.957 115.364 121.483 115.509 121.104 115.801C120.729 116.089 120.447 116.481 120.258 116.977C120.072 117.47 119.979 118.023 119.979 118.636C119.979 119.258 120.074 119.822 120.263 120.33C120.457 120.833 120.741 121.235 121.116 121.534C121.495 121.83 121.964 121.977 122.525 121.977ZM134.485 119.432V114.273H135.826V123H134.485V121.523H134.394C134.19 121.966 133.871 122.343 133.44 122.653C133.008 122.96 132.462 123.114 131.803 123.114C131.258 123.114 130.773 122.994 130.349 122.756C129.924 122.513 129.591 122.15 129.349 121.665C129.106 121.176 128.985 120.561 128.985 119.818V114.273H130.326V119.727C130.326 120.364 130.504 120.871 130.86 121.25C131.22 121.629 131.678 121.818 132.235 121.818C132.568 121.818 132.907 121.733 133.252 121.562C133.601 121.392 133.892 121.131 134.127 120.778C134.366 120.426 134.485 119.977 134.485 119.432ZM138.032 123V121.977L142.987 115.614V115.523H138.191V114.273H144.714V115.341L139.896 121.659V121.75H144.873V123H138.032ZM146.938 123V114.273H148.279V123H146.938ZM147.62 112.818C147.359 112.818 147.133 112.729 146.944 112.551C146.758 112.373 146.665 112.159 146.665 111.909C146.665 111.659 146.758 111.445 146.944 111.267C147.133 111.089 147.359 111 147.62 111C147.881 111 148.105 111.089 148.29 111.267C148.48 111.445 148.575 111.659 148.575 111.909C148.575 112.159 148.48 112.373 148.29 112.551C148.105 112.729 147.881 112.818 147.62 112.818ZM150.735 123V114.273H152.031V115.591H152.121C152.281 115.159 152.568 114.809 152.985 114.54C153.402 114.271 153.871 114.136 154.394 114.136C154.493 114.136 154.616 114.138 154.763 114.142C154.911 114.146 155.023 114.152 155.099 114.159V115.523C155.053 115.511 154.949 115.494 154.786 115.472C154.627 115.445 154.459 115.432 154.281 115.432C153.856 115.432 153.478 115.521 153.144 115.699C152.815 115.873 152.553 116.116 152.36 116.426C152.171 116.733 152.076 117.083 152.076 117.477V123H150.735ZM159.256 123.205C158.703 123.205 158.201 123.1 157.751 122.892C157.3 122.68 156.942 122.375 156.677 121.977C156.412 121.576 156.279 121.091 156.279 120.523C156.279 120.023 156.378 119.617 156.575 119.307C156.772 118.992 157.035 118.746 157.364 118.568C157.694 118.39 158.058 118.258 158.455 118.17C158.857 118.08 159.26 118.008 159.665 117.955C160.196 117.886 160.626 117.835 160.955 117.801C161.289 117.763 161.531 117.701 161.683 117.614C161.838 117.527 161.915 117.375 161.915 117.159V117.114C161.915 116.553 161.762 116.117 161.455 115.807C161.152 115.496 160.692 115.341 160.075 115.341C159.434 115.341 158.933 115.481 158.569 115.761C158.205 116.042 157.95 116.341 157.802 116.659L156.529 116.205C156.756 115.674 157.059 115.261 157.438 114.966C157.821 114.667 158.237 114.458 158.688 114.341C159.143 114.22 159.59 114.159 160.029 114.159C160.309 114.159 160.631 114.193 160.995 114.261C161.362 114.326 161.717 114.46 162.058 114.665C162.402 114.869 162.688 115.178 162.915 115.591C163.143 116.004 163.256 116.557 163.256 117.25V123H161.915V121.818H161.847C161.756 122.008 161.605 122.21 161.393 122.426C161.181 122.642 160.898 122.826 160.546 122.977C160.194 123.129 159.764 123.205 159.256 123.205ZM159.461 122C159.991 122 160.438 121.896 160.802 121.688C161.169 121.479 161.446 121.21 161.631 120.881C161.821 120.551 161.915 120.205 161.915 119.841V118.614C161.859 118.682 161.734 118.744 161.54 118.801C161.351 118.854 161.131 118.902 160.881 118.943C160.635 118.981 160.395 119.015 160.16 119.045C159.929 119.072 159.741 119.095 159.597 119.114C159.249 119.159 158.923 119.233 158.62 119.335C158.321 119.434 158.078 119.583 157.893 119.784C157.711 119.981 157.62 120.25 157.62 120.591C157.62 121.057 157.792 121.409 158.137 121.648C158.486 121.883 158.927 122 159.461 122ZM165.704 123V114.273H166.999V115.636H167.113C167.295 115.17 167.588 114.809 167.994 114.551C168.399 114.29 168.886 114.159 169.454 114.159C170.03 114.159 170.509 114.29 170.891 114.551C171.278 114.809 171.579 115.17 171.795 115.636H171.886C172.109 115.186 172.444 114.828 172.891 114.562C173.338 114.294 173.874 114.159 174.499 114.159C175.28 114.159 175.918 114.403 176.414 114.892C176.91 115.377 177.158 116.133 177.158 117.159V123H175.817V117.159C175.817 116.515 175.641 116.055 175.289 115.778C174.937 115.502 174.522 115.364 174.045 115.364C173.431 115.364 172.956 115.549 172.619 115.92C172.281 116.288 172.113 116.754 172.113 117.318V123H170.749V117.023C170.749 116.527 170.588 116.127 170.266 115.824C169.944 115.517 169.53 115.364 169.022 115.364C168.674 115.364 168.348 115.456 168.045 115.642C167.746 115.828 167.503 116.085 167.317 116.415C167.136 116.741 167.045 117.117 167.045 117.545V123H165.704ZM187.633 126.455C186.985 126.455 186.428 126.371 185.962 126.205C185.496 126.042 185.108 125.826 184.798 125.557C184.491 125.292 184.246 125.008 184.065 124.705L185.133 123.955C185.254 124.114 185.407 124.295 185.593 124.5C185.779 124.708 186.032 124.888 186.354 125.04C186.68 125.195 187.106 125.273 187.633 125.273C188.337 125.273 188.919 125.102 189.377 124.761C189.835 124.42 190.065 123.886 190.065 123.159V121.386H189.951C189.853 121.545 189.712 121.742 189.531 121.977C189.353 122.208 189.095 122.415 188.758 122.597C188.424 122.775 187.974 122.864 187.406 122.864C186.701 122.864 186.068 122.697 185.508 122.364C184.951 122.03 184.51 121.545 184.184 120.909C183.862 120.273 183.701 119.5 183.701 118.591C183.701 117.697 183.858 116.919 184.173 116.256C184.487 115.589 184.924 115.074 185.485 114.71C186.046 114.343 186.693 114.159 187.428 114.159C187.996 114.159 188.447 114.254 188.781 114.443C189.118 114.629 189.375 114.841 189.553 115.08C189.735 115.314 189.875 115.508 189.974 115.659H190.11V114.273H191.406V123.25C191.406 124 191.235 124.61 190.894 125.08C190.557 125.553 190.103 125.9 189.531 126.119C188.962 126.343 188.33 126.455 187.633 126.455ZM187.587 121.659C188.125 121.659 188.58 121.536 188.951 121.29C189.322 121.044 189.604 120.689 189.798 120.227C189.991 119.765 190.087 119.212 190.087 118.568C190.087 117.939 189.993 117.384 189.803 116.903C189.614 116.422 189.334 116.045 188.962 115.773C188.591 115.5 188.133 115.364 187.587 115.364C187.019 115.364 186.546 115.508 186.167 115.795C185.792 116.083 185.51 116.47 185.32 116.955C185.135 117.439 185.042 117.977 185.042 118.568C185.042 119.174 185.137 119.71 185.326 120.176C185.519 120.638 185.803 121.002 186.178 121.267C186.557 121.528 187.027 121.659 187.587 121.659ZM196.428 123.205C195.875 123.205 195.373 123.1 194.923 122.892C194.472 122.68 194.114 122.375 193.849 121.977C193.584 121.576 193.451 121.091 193.451 120.523C193.451 120.023 193.549 119.617 193.746 119.307C193.943 118.992 194.207 118.746 194.536 118.568C194.866 118.39 195.229 118.258 195.627 118.17C196.029 118.08 196.432 118.008 196.837 117.955C197.368 117.886 197.798 117.835 198.127 117.801C198.46 117.763 198.703 117.701 198.854 117.614C199.01 117.527 199.087 117.375 199.087 117.159V117.114C199.087 116.553 198.934 116.117 198.627 115.807C198.324 115.496 197.864 115.341 197.246 115.341C196.606 115.341 196.104 115.481 195.741 115.761C195.377 116.042 195.121 116.341 194.974 116.659L193.701 116.205C193.928 115.674 194.231 115.261 194.61 114.966C194.993 114.667 195.409 114.458 195.86 114.341C196.315 114.22 196.762 114.159 197.201 114.159C197.481 114.159 197.803 114.193 198.167 114.261C198.534 114.326 198.888 114.46 199.229 114.665C199.574 114.869 199.86 115.178 200.087 115.591C200.315 116.004 200.428 116.557 200.428 117.25V123H199.087V121.818H199.019C198.928 122.008 198.777 122.21 198.565 122.426C198.353 122.642 198.07 122.826 197.718 122.977C197.366 123.129 196.936 123.205 196.428 123.205ZM196.633 122C197.163 122 197.61 121.896 197.974 121.688C198.341 121.479 198.618 121.21 198.803 120.881C198.993 120.551 199.087 120.205 199.087 119.841V118.614C199.031 118.682 198.906 118.744 198.712 118.801C198.523 118.854 198.303 118.902 198.053 118.943C197.807 118.981 197.567 119.015 197.332 119.045C197.101 119.072 196.913 119.095 196.769 119.114C196.421 119.159 196.095 119.233 195.792 119.335C195.493 119.434 195.25 119.583 195.065 119.784C194.883 119.981 194.792 120.25 194.792 120.591C194.792 121.057 194.964 121.409 195.309 121.648C195.657 121.883 196.099 122 196.633 122ZM209.058 116.227L207.853 116.568C207.777 116.367 207.665 116.172 207.518 115.983C207.374 115.79 207.177 115.631 206.927 115.506C206.677 115.381 206.357 115.318 205.967 115.318C205.433 115.318 204.987 115.441 204.631 115.688C204.279 115.93 204.103 116.239 204.103 116.614C204.103 116.947 204.224 117.21 204.467 117.403C204.709 117.597 205.088 117.758 205.603 117.886L206.898 118.205C207.679 118.394 208.26 118.684 208.643 119.074C209.025 119.46 209.217 119.958 209.217 120.568C209.217 121.068 209.073 121.515 208.785 121.909C208.501 122.303 208.103 122.614 207.592 122.841C207.08 123.068 206.486 123.182 205.808 123.182C204.917 123.182 204.181 122.989 203.597 122.602C203.014 122.216 202.645 121.652 202.489 120.909L203.762 120.591C203.883 121.061 204.112 121.413 204.45 121.648C204.79 121.883 205.236 122 205.785 122C206.41 122 206.906 121.867 207.273 121.602C207.645 121.333 207.83 121.011 207.83 120.636C207.83 120.333 207.724 120.08 207.512 119.875C207.3 119.667 206.974 119.511 206.535 119.409L205.08 119.068C204.281 118.879 203.694 118.585 203.319 118.188C202.948 117.786 202.762 117.284 202.762 116.682C202.762 116.189 202.9 115.754 203.177 115.375C203.457 114.996 203.838 114.699 204.319 114.483C204.804 114.267 205.353 114.159 205.967 114.159C206.83 114.159 207.508 114.348 208.001 114.727C208.497 115.106 208.849 115.606 209.058 116.227ZM215.031 114.273V115.409H210.508V114.273H215.031ZM211.826 112.182H213.167V120.5C213.167 120.879 213.222 121.163 213.332 121.352C213.445 121.538 213.589 121.663 213.763 121.727C213.942 121.788 214.129 121.818 214.326 121.818C214.474 121.818 214.595 121.811 214.69 121.795C214.784 121.777 214.86 121.761 214.917 121.75L215.19 122.955C215.099 122.989 214.972 123.023 214.809 123.057C214.646 123.095 214.44 123.114 214.19 123.114C213.811 123.114 213.44 123.032 213.076 122.869C212.716 122.706 212.417 122.458 212.178 122.125C211.943 121.792 211.826 121.371 211.826 120.864V112.182ZM220.499 123.182C219.711 123.182 219.02 122.994 218.425 122.619C217.835 122.244 217.372 121.72 217.039 121.045C216.71 120.371 216.545 119.583 216.545 118.682C216.545 117.773 216.71 116.979 217.039 116.301C217.372 115.623 217.835 115.097 218.425 114.722C219.02 114.347 219.711 114.159 220.499 114.159C221.287 114.159 221.977 114.347 222.567 114.722C223.162 115.097 223.624 115.623 223.954 116.301C224.287 116.979 224.454 117.773 224.454 118.682C224.454 119.583 224.287 120.371 223.954 121.045C223.624 121.72 223.162 122.244 222.567 122.619C221.977 122.994 221.287 123.182 220.499 123.182ZM220.499 121.977C221.098 121.977 221.59 121.824 221.977 121.517C222.363 121.21 222.649 120.807 222.835 120.307C223.02 119.807 223.113 119.265 223.113 118.682C223.113 118.098 223.02 117.555 222.835 117.051C222.649 116.547 222.363 116.14 221.977 115.83C221.59 115.519 221.098 115.364 220.499 115.364C219.901 115.364 219.408 115.519 219.022 115.83C218.636 116.14 218.35 116.547 218.164 117.051C217.978 117.555 217.886 118.098 217.886 118.682C217.886 119.265 217.978 119.807 218.164 120.307C218.35 120.807 218.636 121.21 219.022 121.517C219.408 121.824 219.901 121.977 220.499 121.977ZM232.683 116.227L231.478 116.568C231.402 116.367 231.29 116.172 231.143 115.983C230.999 115.79 230.802 115.631 230.552 115.506C230.302 115.381 229.982 115.318 229.592 115.318C229.058 115.318 228.612 115.441 228.256 115.688C227.904 115.93 227.728 116.239 227.728 116.614C227.728 116.947 227.849 117.21 228.092 117.403C228.334 117.597 228.713 117.758 229.228 117.886L230.523 118.205C231.304 118.394 231.885 118.684 232.268 119.074C232.65 119.46 232.842 119.958 232.842 120.568C232.842 121.068 232.698 121.515 232.41 121.909C232.126 122.303 231.728 122.614 231.217 122.841C230.705 123.068 230.111 123.182 229.433 123.182C228.542 123.182 227.806 122.989 227.222 122.602C226.639 122.216 226.27 121.652 226.114 120.909L227.387 120.591C227.508 121.061 227.737 121.413 228.075 121.648C228.415 121.883 228.861 122 229.41 122C230.035 122 230.531 121.867 230.898 121.602C231.27 121.333 231.455 121.011 231.455 120.636C231.455 120.333 231.349 120.08 231.137 119.875C230.925 119.667 230.599 119.511 230.16 119.409L228.705 119.068C227.906 118.879 227.319 118.585 226.944 118.188C226.573 117.786 226.387 117.284 226.387 116.682C226.387 116.189 226.525 115.754 226.802 115.375C227.082 114.996 227.463 114.699 227.944 114.483C228.429 114.267 228.978 114.159 229.592 114.159C230.455 114.159 231.133 114.348 231.626 114.727C232.122 115.106 232.474 115.606 232.683 116.227Z" fill="black" fill-opacity="0.74"/>
<path d="M129.874 60.6136C131.67 60.6136 133.397 60.9148 135.056 61.517C136.727 62.1193 138.215 63.0795 139.522 64.3977C140.84 65.7159 141.88 67.4659 142.641 69.6477C143.414 71.8182 143.806 74.483 143.817 77.642C143.817 80.608 143.482 83.2557 142.812 85.5852C142.153 87.9034 141.204 89.875 139.965 91.5C138.727 93.125 137.232 94.3636 135.482 95.2159C133.732 96.0568 131.778 96.4773 129.619 96.4773C127.289 96.4773 125.232 96.0284 123.448 95.1307C121.664 94.2216 120.227 92.9886 119.136 91.4318C118.056 89.8636 117.403 88.1023 117.175 86.1477H124.454C124.738 87.4205 125.335 88.4091 126.244 89.1136C127.153 89.8068 128.278 90.1534 129.619 90.1534C131.891 90.1534 133.619 89.1648 134.8 87.1875C135.982 85.1989 136.579 82.4773 136.59 79.0227H136.352C135.829 80.0455 135.124 80.9261 134.238 81.6648C133.352 82.392 132.335 82.9545 131.187 83.3523C130.05 83.75 128.84 83.9489 127.556 83.9489C125.499 83.9489 123.664 83.4659 122.05 82.5C120.437 81.5341 119.164 80.2045 118.232 78.5114C117.3 76.8182 116.835 74.8864 116.835 72.7159C116.823 70.375 117.363 68.2898 118.454 66.4602C119.545 64.6307 121.067 63.1989 123.022 62.1648C124.988 61.1193 127.272 60.6023 129.874 60.6136ZM129.925 66.4091C128.778 66.4091 127.755 66.6818 126.857 67.2273C125.971 67.7727 125.266 68.5057 124.744 69.4261C124.232 70.3466 123.982 71.375 123.994 72.5114C123.994 73.6591 124.244 74.6932 124.744 75.6136C125.255 76.5227 125.948 77.25 126.823 77.7955C127.71 78.3295 128.721 78.5966 129.857 78.5966C130.71 78.5966 131.499 78.4375 132.227 78.1193C132.954 77.8011 133.585 77.3636 134.119 76.8068C134.664 76.2386 135.09 75.5852 135.397 74.8466C135.704 74.108 135.857 73.3239 135.857 72.4943C135.846 71.392 135.585 70.3807 135.073 69.4602C134.562 68.5398 133.857 67.8011 132.96 67.2443C132.062 66.6875 131.05 66.4091 129.925 66.4091ZM148.931 96V90.6818L161.357 79.1761C162.414 78.1534 163.3 77.233 164.016 76.4148C164.744 75.5966 165.295 74.7955 165.67 74.0114C166.045 73.2159 166.232 72.358 166.232 71.4375C166.232 70.4148 165.999 69.5341 165.533 68.7955C165.067 68.0455 164.431 67.4716 163.624 67.0739C162.817 66.6648 161.903 66.4602 160.88 66.4602C159.812 66.4602 158.88 66.6761 158.085 67.108C157.289 67.5398 156.675 68.1591 156.244 68.9659C155.812 69.7727 155.596 70.733 155.596 71.8466H148.59C148.59 69.5625 149.107 67.5795 150.141 65.8977C151.175 64.2159 152.624 62.9148 154.488 61.9943C156.352 61.0739 158.499 60.6136 160.931 60.6136C163.431 60.6136 165.607 61.0568 167.46 61.9432C169.323 62.8182 170.772 64.0341 171.806 65.5909C172.84 67.1477 173.357 68.9318 173.357 70.9432C173.357 72.2614 173.096 73.5625 172.573 74.8466C172.062 76.1307 171.147 77.5568 169.829 79.125C168.511 80.6818 166.653 82.5511 164.255 84.733L159.158 89.7273V89.9659H173.817V96H148.931ZM198.273 89.4545V87.6136C198.273 86.2159 198.569 84.9318 199.16 83.7614C199.762 82.5795 200.631 81.6364 201.768 80.9318C202.915 80.2159 204.313 79.858 205.961 79.858C207.631 79.858 209.035 80.2102 210.171 80.9148C211.319 81.6193 212.183 82.5625 212.762 83.7443C213.353 84.9148 213.648 86.2045 213.648 87.6136V89.4545C213.648 90.8523 213.353 92.142 212.762 93.3239C212.171 94.4943 211.302 95.4318 210.154 96.1364C209.006 96.8523 207.609 97.2102 205.961 97.2102C204.29 97.2102 202.887 96.8523 201.751 96.1364C200.614 95.4318 199.751 94.4943 199.16 93.3239C198.569 92.142 198.273 90.8523 198.273 89.4545ZM203.234 87.6136V89.4545C203.234 90.2614 203.427 91.0227 203.813 91.7386C204.211 92.4545 204.927 92.8125 205.961 92.8125C206.995 92.8125 207.7 92.4602 208.075 91.7557C208.461 91.0511 208.654 90.2841 208.654 89.4545V87.6136C208.654 86.7841 208.472 86.0114 208.109 85.2955C207.745 84.5795 207.029 84.2216 205.961 84.2216C204.938 84.2216 204.228 84.5795 203.83 85.2955C203.433 86.0114 203.234 86.7841 203.234 87.6136ZM180.359 69.4773V67.6364C180.359 66.2273 180.66 64.9375 181.262 63.767C181.864 62.5852 182.734 61.642 183.87 60.9375C185.018 60.233 186.404 59.8807 188.029 59.8807C189.711 59.8807 191.12 60.233 192.256 60.9375C193.393 61.642 194.256 62.5852 194.847 63.767C195.438 64.9375 195.734 66.2273 195.734 67.6364V69.4773C195.734 70.8864 195.433 72.1761 194.83 73.3466C194.239 74.517 193.37 75.4545 192.222 76.1591C191.086 76.8523 189.688 77.1989 188.029 77.1989C186.37 77.1989 184.967 76.8466 183.819 76.142C182.683 75.4261 181.819 74.4886 181.228 73.3295C180.648 72.1591 180.359 70.875 180.359 69.4773ZM185.353 67.6364V69.4773C185.353 70.3068 185.546 71.0739 185.933 71.7784C186.33 72.483 187.029 72.8352 188.029 72.8352C189.075 72.8352 189.785 72.483 190.16 71.7784C190.546 71.0739 190.739 70.3068 190.739 69.4773V67.6364C190.739 66.8068 190.558 66.0341 190.194 65.3182C189.83 64.6023 189.109 64.2443 188.029 64.2443C187.018 64.2443 186.319 64.608 185.933 65.3352C185.546 66.0625 185.353 66.8295 185.353 67.6364ZM182.609 96L206.609 61.0909H211.075L187.075 96H182.609Z" fill="black"/>
<defs>
<filter id="filter0_d_4_89" x="28.1" y="0.1" width="280.8" height="179.8" filterUnits="userSpaceOnUse" color-interpolation-filters="sRGB">
<feFlood flood-opacity="0" result="BackgroundImageFix"/>
<feColorMatrix in="SourceAlpha" type="matrix" values="0 0 0 0 0 0 0 0 0 0 0 0 0 0 0 0 0 0 127 0" result="hardAlpha"/>
<feOffset dy="4"/>
<feGaussianBlur stdDeviation="10.45"/>
<feComposite in2="hardAlpha" operator="out"/>
<feColorMatrix type="matrix" values="0 0 0 0 0 0 0 0 0 0 0 0 0 0 0 0 0 0 0.25 0"/>
<feBlend mode="normal" in2="BackgroundImageFix" result="effect1_dropShadow_4_89"/>
<feBlend mode="normal" in="SourceGraphic" in2="effect1_dropShadow_4_89" result="shape"/>
</filter>
</defs>
</svg>
