<svg width="332" height="180" viewBox="0 0 332 180" fill="none" xmlns="http://www.w3.org/2000/svg">
<g filter="url(#filter0_d_4_88)">
<rect x="49" y="17" width="239" height="138" rx="29" fill="white"/>
</g>
<path d="M117.139 111.364H118.548V119.068C118.548 119.864 118.361 120.574 117.986 121.199C117.615 121.82 117.09 122.311 116.412 122.67C115.734 123.027 114.938 123.205 114.026 123.205C113.113 123.205 112.317 123.027 111.639 122.67C110.961 122.311 110.435 121.82 110.06 121.199C109.688 120.574 109.503 119.864 109.503 119.068V111.364H110.912V118.955C110.912 119.523 111.037 120.028 111.287 120.472C111.537 120.911 111.893 121.258 112.355 121.511C112.821 121.761 113.378 121.886 114.026 121.886C114.673 121.886 115.23 121.761 115.696 121.511C116.162 121.258 116.518 120.911 116.764 120.472C117.014 120.028 117.139 119.523 117.139 118.955V111.364ZM127.362 116.227L126.158 116.568C126.082 116.367 125.97 116.172 125.822 115.983C125.679 115.79 125.482 115.631 125.232 115.506C124.982 115.381 124.661 115.318 124.271 115.318C123.737 115.318 123.292 115.441 122.936 115.688C122.584 115.93 122.408 116.239 122.408 116.614C122.408 116.947 122.529 117.21 122.771 117.403C123.014 117.597 123.393 117.758 123.908 117.886L125.203 118.205C125.983 118.394 126.565 118.684 126.947 119.074C127.33 119.46 127.521 119.958 127.521 120.568C127.521 121.068 127.377 121.515 127.089 121.909C126.805 122.303 126.408 122.614 125.896 122.841C125.385 123.068 124.79 123.182 124.112 123.182C123.222 123.182 122.485 122.989 121.902 122.602C121.319 122.216 120.949 121.652 120.794 120.909L122.067 120.591C122.188 121.061 122.417 121.413 122.754 121.648C123.095 121.883 123.54 122 124.089 122C124.714 122 125.211 121.867 125.578 121.602C125.949 121.333 126.135 121.011 126.135 120.636C126.135 120.333 126.029 120.08 125.817 119.875C125.605 119.667 125.279 119.511 124.839 119.409L123.385 119.068C122.586 118.879 121.999 118.585 121.624 118.188C121.252 117.786 121.067 117.284 121.067 116.682C121.067 116.189 121.205 115.754 121.482 115.375C121.762 114.996 122.143 114.699 122.624 114.483C123.108 114.267 123.658 114.159 124.271 114.159C125.135 114.159 125.813 114.348 126.305 114.727C126.802 115.106 127.154 115.606 127.362 116.227ZM135.04 119.432V114.273H136.381V123H135.04V121.523H134.949C134.744 121.966 134.426 122.343 133.994 122.653C133.563 122.96 133.017 123.114 132.358 123.114C131.812 123.114 131.328 122.994 130.903 122.756C130.479 122.513 130.146 122.15 129.903 121.665C129.661 121.176 129.54 120.561 129.54 119.818V114.273H130.881V119.727C130.881 120.364 131.059 120.871 131.415 121.25C131.775 121.629 132.233 121.818 132.79 121.818C133.123 121.818 133.462 121.733 133.807 121.562C134.155 121.392 134.447 121.131 134.682 120.778C134.92 120.426 135.04 119.977 135.04 119.432ZM141.405 123.205C140.852 123.205 140.35 123.1 139.899 122.892C139.448 122.68 139.09 122.375 138.825 121.977C138.56 121.576 138.428 121.091 138.428 120.523C138.428 120.023 138.526 119.617 138.723 119.307C138.92 118.992 139.183 118.746 139.513 118.568C139.842 118.39 140.206 118.258 140.604 118.17C141.005 118.08 141.409 118.008 141.814 117.955C142.344 117.886 142.774 117.835 143.104 117.801C143.437 117.763 143.679 117.701 143.831 117.614C143.986 117.527 144.064 117.375 144.064 117.159V117.114C144.064 116.553 143.911 116.117 143.604 115.807C143.301 115.496 142.84 115.341 142.223 115.341C141.583 115.341 141.081 115.481 140.717 115.761C140.354 116.042 140.098 116.341 139.95 116.659L138.678 116.205C138.905 115.674 139.208 115.261 139.587 114.966C139.969 114.667 140.386 114.458 140.837 114.341C141.291 114.22 141.738 114.159 142.178 114.159C142.458 114.159 142.78 114.193 143.143 114.261C143.511 114.326 143.865 114.46 144.206 114.665C144.551 114.869 144.837 115.178 145.064 115.591C145.291 116.004 145.405 116.557 145.405 117.25V123H144.064V121.818H143.996C143.905 122.008 143.753 122.21 143.541 122.426C143.329 122.642 143.047 122.826 142.695 122.977C142.342 123.129 141.912 123.205 141.405 123.205ZM141.609 122C142.14 122 142.587 121.896 142.95 121.688C143.318 121.479 143.594 121.21 143.78 120.881C143.969 120.551 144.064 120.205 144.064 119.841V118.614C144.007 118.682 143.882 118.744 143.689 118.801C143.5 118.854 143.28 118.902 143.03 118.943C142.784 118.981 142.543 119.015 142.308 119.045C142.077 119.072 141.89 119.095 141.746 119.114C141.397 119.159 141.071 119.233 140.768 119.335C140.469 119.434 140.227 119.583 140.041 119.784C139.859 119.981 139.768 120.25 139.768 120.591C139.768 121.057 139.941 121.409 140.286 121.648C140.634 121.883 141.075 122 141.609 122ZM147.852 123V114.273H149.148V115.591H149.239C149.398 115.159 149.686 114.809 150.102 114.54C150.519 114.271 150.989 114.136 151.511 114.136C151.61 114.136 151.733 114.138 151.881 114.142C152.028 114.146 152.14 114.152 152.216 114.159V115.523C152.17 115.511 152.066 115.494 151.903 115.472C151.744 115.445 151.576 115.432 151.398 115.432C150.973 115.432 150.595 115.521 150.261 115.699C149.932 115.873 149.67 116.116 149.477 116.426C149.288 116.733 149.193 117.083 149.193 117.477V123H147.852ZM153.805 123V114.273H155.146V123H153.805ZM154.487 112.818C154.226 112.818 154 112.729 153.811 112.551C153.625 112.373 153.533 112.159 153.533 111.909C153.533 111.659 153.625 111.445 153.811 111.267C154 111.089 154.226 111 154.487 111C154.749 111 154.972 111.089 155.158 111.267C155.347 111.445 155.442 111.659 155.442 111.909C155.442 112.159 155.347 112.373 155.158 112.551C154.972 112.729 154.749 112.818 154.487 112.818ZM161.148 123.182C160.36 123.182 159.669 122.994 159.074 122.619C158.483 122.244 158.021 121.72 157.688 121.045C157.358 120.371 157.193 119.583 157.193 118.682C157.193 117.773 157.358 116.979 157.688 116.301C158.021 115.623 158.483 115.097 159.074 114.722C159.669 114.347 160.36 114.159 161.148 114.159C161.936 114.159 162.625 114.347 163.216 114.722C163.811 115.097 164.273 115.623 164.602 116.301C164.936 116.979 165.102 117.773 165.102 118.682C165.102 119.583 164.936 120.371 164.602 121.045C164.273 121.72 163.811 122.244 163.216 122.619C162.625 122.994 161.936 123.182 161.148 123.182ZM161.148 121.977C161.746 121.977 162.239 121.824 162.625 121.517C163.011 121.21 163.297 120.807 163.483 120.307C163.669 119.807 163.761 119.265 163.761 118.682C163.761 118.098 163.669 117.555 163.483 117.051C163.297 116.547 163.011 116.14 162.625 115.83C162.239 115.519 161.746 115.364 161.148 115.364C160.549 115.364 160.057 115.519 159.67 115.83C159.284 116.14 158.998 116.547 158.812 117.051C158.627 117.555 158.534 118.098 158.534 118.682C158.534 119.265 158.627 119.807 158.812 120.307C158.998 120.807 159.284 121.21 159.67 121.517C160.057 121.824 160.549 121.977 161.148 121.977ZM173.331 116.227L172.126 116.568C172.051 116.367 171.939 116.172 171.791 115.983C171.647 115.79 171.45 115.631 171.2 115.506C170.95 115.381 170.63 115.318 170.24 115.318C169.706 115.318 169.261 115.441 168.905 115.688C168.553 115.93 168.376 116.239 168.376 116.614C168.376 116.947 168.498 117.21 168.74 117.403C168.982 117.597 169.361 117.758 169.876 117.886L171.172 118.205C171.952 118.394 172.534 118.684 172.916 119.074C173.299 119.46 173.49 119.958 173.49 120.568C173.49 121.068 173.346 121.515 173.058 121.909C172.774 122.303 172.376 122.614 171.865 122.841C171.354 123.068 170.759 123.182 170.081 123.182C169.191 123.182 168.454 122.989 167.871 122.602C167.287 122.216 166.918 121.652 166.763 120.909L168.036 120.591C168.157 121.061 168.386 121.413 168.723 121.648C169.064 121.883 169.509 122 170.058 122C170.683 122 171.179 121.867 171.547 121.602C171.918 121.333 172.104 121.011 172.104 120.636C172.104 120.333 171.998 120.08 171.786 119.875C171.573 119.667 171.248 119.511 170.808 119.409L169.354 119.068C168.554 118.879 167.967 118.585 167.592 118.188C167.221 117.786 167.036 117.284 167.036 116.682C167.036 116.189 167.174 115.754 167.45 115.375C167.731 114.996 168.111 114.699 168.592 114.483C169.077 114.267 169.626 114.159 170.24 114.159C171.104 114.159 171.782 114.348 172.274 114.727C172.77 115.106 173.123 115.606 173.331 116.227ZM182.577 123.205C182.024 123.205 181.522 123.1 181.071 122.892C180.62 122.68 180.262 122.375 179.997 121.977C179.732 121.576 179.599 121.091 179.599 120.523C179.599 120.023 179.698 119.617 179.895 119.307C180.092 118.992 180.355 118.746 180.685 118.568C181.014 118.39 181.378 118.258 181.776 118.17C182.177 118.08 182.58 118.008 182.986 117.955C183.516 117.886 183.946 117.835 184.276 117.801C184.609 117.763 184.851 117.701 185.003 117.614C185.158 117.527 185.236 117.375 185.236 117.159V117.114C185.236 116.553 185.082 116.117 184.776 115.807C184.473 115.496 184.012 115.341 183.395 115.341C182.755 115.341 182.253 115.481 181.889 115.761C181.526 116.042 181.27 116.341 181.122 116.659L179.849 116.205C180.077 115.674 180.38 115.261 180.759 114.966C181.141 114.667 181.558 114.458 182.009 114.341C182.463 114.22 182.91 114.159 183.349 114.159C183.63 114.159 183.952 114.193 184.315 114.261C184.683 114.326 185.037 114.46 185.378 114.665C185.723 114.869 186.009 115.178 186.236 115.591C186.463 116.004 186.577 116.557 186.577 117.25V123H185.236V121.818H185.168C185.077 122.008 184.925 122.21 184.713 122.426C184.501 122.642 184.219 122.826 183.866 122.977C183.514 123.129 183.084 123.205 182.577 123.205ZM182.781 122C183.312 122 183.759 121.896 184.122 121.688C184.49 121.479 184.766 121.21 184.952 120.881C185.141 120.551 185.236 120.205 185.236 119.841V118.614C185.179 118.682 185.054 118.744 184.861 118.801C184.671 118.854 184.452 118.902 184.202 118.943C183.955 118.981 183.715 119.015 183.48 119.045C183.249 119.072 183.062 119.095 182.918 119.114C182.569 119.159 182.243 119.233 181.94 119.335C181.641 119.434 181.399 119.583 181.213 119.784C181.031 119.981 180.94 120.25 180.94 120.591C180.94 121.057 181.113 121.409 181.457 121.648C181.806 121.883 182.247 122 182.781 122ZM192.82 114.273V115.409H188.297V114.273H192.82ZM189.615 112.182H190.956V120.5C190.956 120.879 191.011 121.163 191.121 121.352C191.234 121.538 191.378 121.663 191.553 121.727C191.731 121.788 191.918 121.818 192.115 121.818C192.263 121.818 192.384 121.811 192.479 121.795C192.573 121.777 192.649 121.761 192.706 121.75L192.979 122.955C192.888 122.989 192.761 123.023 192.598 123.057C192.435 123.095 192.229 123.114 191.979 123.114C191.6 123.114 191.229 123.032 190.865 122.869C190.505 122.706 190.206 122.458 189.967 122.125C189.732 121.792 189.615 121.371 189.615 120.864V112.182ZM194.837 123V114.273H196.178V123H194.837ZM195.518 112.818C195.257 112.818 195.032 112.729 194.842 112.551C194.657 112.373 194.564 112.159 194.564 111.909C194.564 111.659 194.657 111.445 194.842 111.267C195.032 111.089 195.257 111 195.518 111C195.78 111 196.003 111.089 196.189 111.267C196.378 111.445 196.473 111.659 196.473 111.909C196.473 112.159 196.378 112.373 196.189 112.551C196.003 112.729 195.78 112.818 195.518 112.818ZM205.77 114.273L202.543 123H201.179L197.952 114.273H199.406L201.815 121.227H201.906L204.315 114.273H205.77ZM210.773 123.182C209.985 123.182 209.294 122.994 208.699 122.619C208.108 122.244 207.646 121.72 207.312 121.045C206.983 120.371 206.818 119.583 206.818 118.682C206.818 117.773 206.983 116.979 207.312 116.301C207.646 115.623 208.108 115.097 208.699 114.722C209.294 114.347 209.985 114.159 210.773 114.159C211.561 114.159 212.25 114.347 212.841 114.722C213.436 115.097 213.898 115.623 214.227 116.301C214.561 116.979 214.727 117.773 214.727 118.682C214.727 119.583 214.561 120.371 214.227 121.045C213.898 121.72 213.436 122.244 212.841 122.619C212.25 122.994 211.561 123.182 210.773 123.182ZM210.773 121.977C211.371 121.977 211.864 121.824 212.25 121.517C212.636 121.21 212.922 120.807 213.108 120.307C213.294 119.807 213.386 119.265 213.386 118.682C213.386 118.098 213.294 117.555 213.108 117.051C212.922 116.547 212.636 116.14 212.25 115.83C211.864 115.519 211.371 115.364 210.773 115.364C210.174 115.364 209.682 115.519 209.295 115.83C208.909 116.14 208.623 116.547 208.438 117.051C208.252 117.555 208.159 118.098 208.159 118.682C208.159 119.265 208.252 119.807 208.438 120.307C208.623 120.807 208.909 121.21 209.295 121.517C209.682 121.824 210.174 121.977 210.773 121.977ZM222.956 116.227L221.751 116.568C221.676 116.367 221.564 116.172 221.416 115.983C221.272 115.79 221.075 115.631 220.825 115.506C220.575 115.381 220.255 115.318 219.865 115.318C219.331 115.318 218.886 115.441 218.53 115.688C218.178 115.93 218.001 116.239 218.001 116.614C218.001 116.947 218.123 117.21 218.365 117.403C218.607 117.597 218.986 117.758 219.501 117.886L220.797 118.205C221.577 118.394 222.159 118.684 222.541 119.074C222.924 119.46 223.115 119.958 223.115 120.568C223.115 121.068 222.971 121.515 222.683 121.909C222.399 122.303 222.001 122.614 221.49 122.841C220.979 123.068 220.384 123.182 219.706 123.182C218.816 123.182 218.079 122.989 217.496 122.602C216.912 122.216 216.543 121.652 216.388 120.909L217.661 120.591C217.782 121.061 218.011 121.413 218.348 121.648C218.689 121.883 219.134 122 219.683 122C220.308 122 220.804 121.867 221.172 121.602C221.543 121.333 221.729 121.011 221.729 120.636C221.729 120.333 221.623 120.08 221.411 119.875C221.198 119.667 220.873 119.511 220.433 119.409L218.979 119.068C218.179 118.879 217.592 118.585 217.217 118.188C216.846 117.786 216.661 117.284 216.661 116.682C216.661 116.189 216.799 115.754 217.075 115.375C217.356 114.996 217.736 114.699 218.217 114.483C218.702 114.267 219.251 114.159 219.865 114.159C220.729 114.159 221.407 114.348 221.899 114.727C222.395 115.106 222.748 115.606 222.956 116.227Z" fill="black" fill-opacity="0.74"/>
<path d="M100.464 90.6818V66.5455H106.567V90.6818H100.464ZM91.4474 81.6648V75.5625H115.584V81.6648H91.4474ZM135.408 96.4773C132.999 96.4773 130.851 96.0341 128.964 95.1477C127.089 94.2614 125.601 93.0398 124.499 91.483C123.396 89.9261 122.822 88.142 122.777 86.1307H129.936C130.016 87.483 130.584 88.5795 131.641 89.4205C132.697 90.2614 133.953 90.6818 135.408 90.6818C136.567 90.6818 137.589 90.4261 138.476 89.9148C139.374 89.392 140.072 88.6705 140.572 87.75C141.084 86.8182 141.339 85.75 141.339 84.5455C141.339 83.3182 141.078 82.2386 140.555 81.3068C140.044 80.375 139.334 79.6477 138.425 79.125C137.516 78.6023 136.476 78.3352 135.305 78.3239C134.283 78.3239 133.288 78.5341 132.322 78.9545C131.368 79.375 130.624 79.9489 130.089 80.6761L123.527 79.5L125.18 61.0909H146.521V67.125H131.266L130.362 75.8693H130.567C131.18 75.0057 132.107 74.2898 133.345 73.7216C134.584 73.1534 135.97 72.8693 137.504 72.8693C139.607 72.8693 141.482 73.3636 143.129 74.3523C144.777 75.3409 146.078 76.6989 147.033 78.4261C147.987 80.142 148.459 82.1193 148.447 84.358C148.459 86.7102 147.913 88.8011 146.811 90.6307C145.72 92.4489 144.192 93.8807 142.226 94.9261C140.271 95.9602 137.999 96.4773 135.408 96.4773ZM167.283 96.767C164.351 96.7557 161.828 96.0341 159.714 94.6023C157.612 93.1705 155.993 91.0966 154.857 88.3807C153.732 85.6648 153.175 82.3977 153.186 78.5795C153.186 74.7727 153.749 71.5284 154.874 68.8466C156.01 66.1648 157.629 64.125 159.732 62.7273C161.845 61.3182 164.362 60.6136 167.283 60.6136C170.203 60.6136 172.714 61.3182 174.817 62.7273C176.93 64.1364 178.555 66.1818 179.692 68.8636C180.828 71.5341 181.391 74.7727 181.379 78.5795C181.379 82.4091 180.811 85.6818 179.675 88.3977C178.55 91.1136 176.936 93.1875 174.834 94.6193C172.732 96.0511 170.214 96.767 167.283 96.767ZM167.283 90.6477C169.283 90.6477 170.879 89.642 172.072 87.6307C173.266 85.6193 173.857 82.6023 173.845 78.5795C173.845 75.9318 173.572 73.7273 173.027 71.9659C172.493 70.2045 171.732 68.8807 170.743 67.9943C169.766 67.108 168.612 66.6648 167.283 66.6648C165.294 66.6648 163.703 67.6591 162.51 69.6477C161.317 71.6364 160.714 74.6136 160.703 78.5795C160.703 81.2614 160.97 83.5 161.504 85.2955C162.05 87.0795 162.817 88.4205 163.805 89.3182C164.794 90.2045 165.953 90.6477 167.283 90.6477ZM200.33 96.767C197.398 96.7557 194.875 96.0341 192.761 94.6023C190.659 93.1705 189.04 91.0966 187.903 88.3807C186.778 85.6648 186.222 82.3977 186.233 78.5795C186.233 74.7727 186.795 71.5284 187.92 68.8466C189.057 66.1648 190.676 64.125 192.778 62.7273C194.892 61.3182 197.409 60.6136 200.33 60.6136C203.25 60.6136 205.761 61.3182 207.864 62.7273C209.977 64.1364 211.602 66.1818 212.739 68.8636C213.875 71.5341 214.438 74.7727 214.426 78.5795C214.426 82.4091 213.858 85.6818 212.722 88.3977C211.597 91.1136 209.983 93.1875 207.881 94.6193C205.778 96.0511 203.261 96.767 200.33 96.767ZM200.33 90.6477C202.33 90.6477 203.926 89.642 205.119 87.6307C206.313 85.6193 206.903 82.6023 206.892 78.5795C206.892 75.9318 206.619 73.7273 206.074 71.9659C205.54 70.2045 204.778 68.8807 203.79 67.9943C202.812 67.108 201.659 66.6648 200.33 66.6648C198.341 66.6648 196.75 67.6591 195.557 69.6477C194.364 71.6364 193.761 74.6136 193.75 78.5795C193.75 81.2614 194.017 83.5 194.551 85.2955C195.097 87.0795 195.864 88.4205 196.852 89.3182C197.841 90.2045 199 90.6477 200.33 90.6477ZM226.337 88.4659L226.354 79.7557H227.411L235.797 69.8182H244.132L232.865 82.9773H231.143L226.337 88.4659ZM219.757 96V61.0909H227.018V96H219.757ZM236.121 96L228.416 84.5966L233.257 79.4659L244.626 96H236.121Z" fill="black"/>
<defs>
<filter id="filter0_d_4_88" x="28.1" y="0.1" width="280.8" height="179.8" filterUnits="userSpaceOnUse" color-interpolation-filters="sRGB">
<feFlood flood-opacity="0" result="BackgroundImageFix"/>
<feColorMatrix in="SourceAlpha" type="matrix" values="0 0 0 0 0 0 0 0 0 0 0 0 0 0 0 0 0 0 127 0" result="hardAlpha"/>
<feOffset dy="4"/>
<feGaussianBlur stdDeviation="10.45"/>
<feComposite in2="hardAlpha" operator="out"/>
<feColorMatrix type="matrix" values="0 0 0 0 0 0 0 0 0 0 0 0 0 0 0 0 0 0 0.25 0"/>
<feBlend mode="normal" in2="BackgroundImageFix" result="effect1_dropShadow_4_88"/>
<feBlend mode="normal" in="SourceGraphic" in2="effect1_dropShadow_4_88" result="shape"/>
</filter>
</defs>
</svg>
