<svg width="332" height="180" viewBox="0 0 332 180" fill="none" xmlns="http://www.w3.org/2000/svg">
<g filter="url(#filter0_d_4_93)">
<rect x="49" y="17" width="239" height="138" rx="29" fill="white"/>
</g>
<path d="M73.9723 123H72.495L76.7678 111.364H78.2223L82.495 123H81.0178L77.5405 113.205H77.4496L73.9723 123ZM74.5178 118.455H80.4723V119.705H74.5178V118.455ZM89.6257 119.432V114.273H90.9666V123H89.6257V121.523H89.5348C89.3303 121.966 89.0121 122.343 88.5803 122.653C88.1484 122.96 87.603 123.114 86.9439 123.114C86.3984 123.114 85.9136 122.994 85.4893 122.756C85.0651 122.513 84.7318 122.15 84.4893 121.665C84.2469 121.176 84.1257 120.561 84.1257 119.818V114.273H85.4666V119.727C85.4666 120.364 85.6446 120.871 86.0007 121.25C86.3606 121.629 86.8189 121.818 87.3757 121.818C87.709 121.818 88.0481 121.733 88.3928 121.562C88.7412 121.392 89.0329 121.131 89.2678 120.778C89.5064 120.426 89.6257 119.977 89.6257 119.432ZM93.4226 123V114.273H94.718V115.636H94.8317C95.0135 115.17 95.3071 114.809 95.7124 114.551C96.1177 114.29 96.6044 114.159 97.1726 114.159C97.7483 114.159 98.2275 114.29 98.6101 114.551C98.9964 114.809 99.2976 115.17 99.5135 115.636H99.6044C99.8279 115.186 100.163 114.828 100.61 114.562C101.057 114.294 101.593 114.159 102.218 114.159C102.998 114.159 103.637 114.403 104.133 114.892C104.629 115.377 104.877 116.133 104.877 117.159V123H103.536V117.159C103.536 116.515 103.36 116.055 103.008 115.778C102.656 115.502 102.241 115.364 101.763 115.364C101.15 115.364 100.674 115.549 100.337 115.92C100 116.288 99.8317 116.754 99.8317 117.318V123H98.468V117.023C98.468 116.527 98.3071 116.127 97.9851 115.824C97.6631 115.517 97.2483 115.364 96.7408 115.364C96.3923 115.364 96.0665 115.456 95.7635 115.642C95.4643 115.828 95.2218 116.085 95.0362 116.415C94.8544 116.741 94.7635 117.117 94.7635 117.545V123H93.4226ZM110.988 123.182C110.147 123.182 109.422 122.996 108.812 122.625C108.206 122.25 107.738 121.727 107.408 121.057C107.083 120.383 106.92 119.598 106.92 118.705C106.92 117.811 107.083 117.023 107.408 116.341C107.738 115.655 108.196 115.121 108.783 114.739C109.374 114.352 110.064 114.159 110.852 114.159C111.306 114.159 111.755 114.235 112.198 114.386C112.641 114.538 113.045 114.784 113.408 115.125C113.772 115.462 114.062 115.909 114.278 116.466C114.494 117.023 114.602 117.708 114.602 118.523V119.091H107.874V117.932H113.238C113.238 117.439 113.139 117 112.942 116.614C112.749 116.227 112.473 115.922 112.113 115.699C111.757 115.475 111.336 115.364 110.852 115.364C110.317 115.364 109.855 115.496 109.465 115.761C109.079 116.023 108.781 116.364 108.573 116.784C108.365 117.205 108.261 117.655 108.261 118.136V118.909C108.261 119.568 108.374 120.127 108.602 120.585C108.833 121.04 109.153 121.386 109.562 121.625C109.971 121.86 110.446 121.977 110.988 121.977C111.34 121.977 111.658 121.928 111.942 121.83C112.23 121.727 112.478 121.576 112.687 121.375C112.895 121.17 113.056 120.917 113.17 120.614L114.465 120.977C114.329 121.417 114.1 121.803 113.778 122.136C113.456 122.466 113.058 122.723 112.585 122.909C112.111 123.091 111.579 123.182 110.988 123.182ZM117.982 117.75V123H116.641V114.273H117.937V115.636H118.05C118.255 115.193 118.566 114.837 118.982 114.568C119.399 114.295 119.937 114.159 120.596 114.159C121.187 114.159 121.704 114.28 122.147 114.523C122.59 114.761 122.935 115.125 123.181 115.614C123.427 116.098 123.55 116.712 123.55 117.455V123H122.21V117.545C122.21 116.86 122.031 116.326 121.675 115.943C121.319 115.557 120.831 115.364 120.21 115.364C119.781 115.364 119.399 115.456 119.062 115.642C118.728 115.828 118.465 116.098 118.272 116.455C118.079 116.811 117.982 117.242 117.982 117.75ZM129.796 114.273V115.409H125.273V114.273H129.796ZM126.592 112.182H127.933V120.5C127.933 120.879 127.987 121.163 128.097 121.352C128.211 121.538 128.355 121.663 128.529 121.727C128.707 121.788 128.895 121.818 129.092 121.818C129.239 121.818 129.361 121.811 129.455 121.795C129.55 121.777 129.626 121.761 129.683 121.75L129.955 122.955C129.864 122.989 129.737 123.023 129.575 123.057C129.412 123.095 129.205 123.114 128.955 123.114C128.576 123.114 128.205 123.032 127.842 122.869C127.482 122.706 127.183 122.458 126.944 122.125C126.709 121.792 126.592 121.371 126.592 120.864V112.182ZM134.381 123.205C133.828 123.205 133.326 123.1 132.876 122.892C132.425 122.68 132.067 122.375 131.802 121.977C131.537 121.576 131.404 121.091 131.404 120.523C131.404 120.023 131.503 119.617 131.7 119.307C131.897 118.992 132.16 118.746 132.489 118.568C132.819 118.39 133.183 118.258 133.58 118.17C133.982 118.08 134.385 118.008 134.79 117.955C135.321 117.886 135.751 117.835 136.08 117.801C136.414 117.763 136.656 117.701 136.808 117.614C136.963 117.527 137.04 117.375 137.04 117.159V117.114C137.04 116.553 136.887 116.117 136.58 115.807C136.277 115.496 135.817 115.341 135.2 115.341C134.559 115.341 134.058 115.481 133.694 115.761C133.33 116.042 133.075 116.341 132.927 116.659L131.654 116.205C131.881 115.674 132.184 115.261 132.563 114.966C132.946 114.667 133.362 114.458 133.813 114.341C134.268 114.22 134.715 114.159 135.154 114.159C135.434 114.159 135.756 114.193 136.12 114.261C136.487 114.326 136.842 114.46 137.183 114.665C137.527 114.869 137.813 115.178 138.04 115.591C138.268 116.004 138.381 116.557 138.381 117.25V123H137.04V121.818H136.972C136.881 122.008 136.73 122.21 136.518 122.426C136.306 122.642 136.023 122.826 135.671 122.977C135.319 123.129 134.889 123.205 134.381 123.205ZM134.586 122C135.116 122 135.563 121.896 135.927 121.688C136.294 121.479 136.571 121.21 136.756 120.881C136.946 120.551 137.04 120.205 137.04 119.841V118.614C136.984 118.682 136.859 118.744 136.665 118.801C136.476 118.854 136.256 118.902 136.006 118.943C135.76 118.981 135.52 119.015 135.285 119.045C135.054 119.072 134.866 119.095 134.722 119.114C134.374 119.159 134.048 119.233 133.745 119.335C133.446 119.434 133.203 119.583 133.018 119.784C132.836 119.981 132.745 120.25 132.745 120.591C132.745 121.057 132.917 121.409 133.262 121.648C133.611 121.883 134.052 122 134.586 122ZM140.829 123V114.273H142.124V115.591H142.215C142.374 115.159 142.662 114.809 143.079 114.54C143.496 114.271 143.965 114.136 144.488 114.136C144.586 114.136 144.71 114.138 144.857 114.142C145.005 114.146 145.117 114.152 145.192 114.159V115.523C145.147 115.511 145.043 115.494 144.88 115.472C144.721 115.445 144.552 115.432 144.374 115.432C143.95 115.432 143.571 115.521 143.238 115.699C142.908 115.873 142.647 116.116 142.454 116.426C142.264 116.733 142.17 117.083 142.17 117.477V123H140.829ZM149.35 123.205C148.797 123.205 148.295 123.1 147.844 122.892C147.394 122.68 147.036 122.375 146.771 121.977C146.505 121.576 146.373 121.091 146.373 120.523C146.373 120.023 146.471 119.617 146.668 119.307C146.865 118.992 147.129 118.746 147.458 118.568C147.788 118.39 148.151 118.258 148.549 118.17C148.951 118.08 149.354 118.008 149.759 117.955C150.29 117.886 150.719 117.835 151.049 117.801C151.382 117.763 151.625 117.701 151.776 117.614C151.932 117.527 152.009 117.375 152.009 117.159V117.114C152.009 116.553 151.856 116.117 151.549 115.807C151.246 115.496 150.786 115.341 150.168 115.341C149.528 115.341 149.026 115.481 148.663 115.761C148.299 116.042 148.043 116.341 147.896 116.659L146.623 116.205C146.85 115.674 147.153 115.261 147.532 114.966C147.915 114.667 148.331 114.458 148.782 114.341C149.237 114.22 149.683 114.159 150.123 114.159C150.403 114.159 150.725 114.193 151.089 114.261C151.456 114.326 151.81 114.46 152.151 114.665C152.496 114.869 152.782 115.178 153.009 115.591C153.237 116.004 153.35 116.557 153.35 117.25V123H152.009V121.818H151.941C151.85 122.008 151.699 122.21 151.487 122.426C151.274 122.642 150.992 122.826 150.64 122.977C150.288 123.129 149.858 123.205 149.35 123.205ZM149.555 122C150.085 122 150.532 121.896 150.896 121.688C151.263 121.479 151.54 121.21 151.725 120.881C151.915 120.551 152.009 120.205 152.009 119.841V118.614C151.952 118.682 151.827 118.744 151.634 118.801C151.445 118.854 151.225 118.902 150.975 118.943C150.729 118.981 150.488 119.015 150.254 119.045C150.022 119.072 149.835 119.095 149.691 119.114C149.343 119.159 149.017 119.233 148.714 119.335C148.415 119.434 148.172 119.583 147.987 119.784C147.805 119.981 147.714 120.25 147.714 120.591C147.714 121.057 147.886 121.409 148.231 121.648C148.579 121.883 149.021 122 149.555 122ZM155.798 123V114.273H157.093V115.636H157.207C157.388 115.17 157.682 114.809 158.087 114.551C158.493 114.29 158.979 114.159 159.548 114.159C160.123 114.159 160.603 114.29 160.985 114.551C161.371 114.809 161.673 115.17 161.888 115.636H161.979C162.203 115.186 162.538 114.828 162.985 114.562C163.432 114.294 163.968 114.159 164.593 114.159C165.373 114.159 166.012 114.403 166.508 114.892C167.004 115.377 167.252 116.133 167.252 117.159V123H165.911V117.159C165.911 116.515 165.735 116.055 165.383 115.778C165.031 115.502 164.616 115.364 164.138 115.364C163.525 115.364 163.049 115.549 162.712 115.92C162.375 116.288 162.207 116.754 162.207 117.318V123H160.843V117.023C160.843 116.527 160.682 116.127 160.36 115.824C160.038 115.517 159.623 115.364 159.116 115.364C158.767 115.364 158.442 115.456 158.138 115.642C157.839 115.828 157.597 116.085 157.411 116.415C157.229 116.741 157.138 117.117 157.138 117.545V123H155.798ZM176.772 123.205C176.219 123.205 175.717 123.1 175.266 122.892C174.816 122.68 174.458 122.375 174.192 121.977C173.927 121.576 173.795 121.091 173.795 120.523C173.795 120.023 173.893 119.617 174.09 119.307C174.287 118.992 174.55 118.746 174.88 118.568C175.21 118.39 175.573 118.258 175.971 118.17C176.372 118.08 176.776 118.008 177.181 117.955C177.711 117.886 178.141 117.835 178.471 117.801C178.804 117.763 179.047 117.701 179.198 117.614C179.353 117.527 179.431 117.375 179.431 117.159V117.114C179.431 116.553 179.278 116.117 178.971 115.807C178.668 115.496 178.208 115.341 177.59 115.341C176.95 115.341 176.448 115.481 176.085 115.761C175.721 116.042 175.465 116.341 175.317 116.659L174.045 116.205C174.272 115.674 174.575 115.261 174.954 114.966C175.336 114.667 175.753 114.458 176.204 114.341C176.658 114.22 177.105 114.159 177.545 114.159C177.825 114.159 178.147 114.193 178.511 114.261C178.878 114.326 179.232 114.46 179.573 114.665C179.918 114.869 180.204 115.178 180.431 115.591C180.658 116.004 180.772 116.557 180.772 117.25V123H179.431V121.818H179.363C179.272 122.008 179.121 122.21 178.908 122.426C178.696 122.642 178.414 122.826 178.062 122.977C177.71 123.129 177.28 123.205 176.772 123.205ZM176.977 122C177.507 122 177.954 121.896 178.317 121.688C178.685 121.479 178.961 121.21 179.147 120.881C179.336 120.551 179.431 120.205 179.431 119.841V118.614C179.374 118.682 179.249 118.744 179.056 118.801C178.867 118.854 178.647 118.902 178.397 118.943C178.151 118.981 177.91 119.015 177.675 119.045C177.444 119.072 177.257 119.095 177.113 119.114C176.764 119.159 176.439 119.233 176.136 119.335C175.836 119.434 175.594 119.583 175.408 119.784C175.227 119.981 175.136 120.25 175.136 120.591C175.136 121.057 175.308 121.409 175.653 121.648C176.001 121.883 176.442 122 176.977 122ZM191.379 123.182C190.538 123.182 189.812 122.996 189.202 122.625C188.596 122.25 188.129 121.727 187.799 121.057C187.473 120.383 187.31 119.598 187.31 118.705C187.31 117.811 187.473 117.023 187.799 116.341C188.129 115.655 188.587 115.121 189.174 114.739C189.765 114.352 190.454 114.159 191.242 114.159C191.697 114.159 192.146 114.235 192.589 114.386C193.032 114.538 193.435 114.784 193.799 115.125C194.163 115.462 194.452 115.909 194.668 116.466C194.884 117.023 194.992 117.708 194.992 118.523V119.091H188.265V117.932H193.629C193.629 117.439 193.53 117 193.333 116.614C193.14 116.227 192.863 115.922 192.504 115.699C192.147 115.475 191.727 115.364 191.242 115.364C190.708 115.364 190.246 115.496 189.856 115.761C189.469 116.023 189.172 116.364 188.964 116.784C188.755 117.205 188.651 117.655 188.651 118.136V118.909C188.651 119.568 188.765 120.127 188.992 120.585C189.223 121.04 189.543 121.386 189.952 121.625C190.362 121.86 190.837 121.977 191.379 121.977C191.731 121.977 192.049 121.928 192.333 121.83C192.621 121.727 192.869 121.576 193.077 121.375C193.286 121.17 193.447 120.917 193.56 120.614L194.856 120.977C194.719 121.417 194.49 121.803 194.168 122.136C193.846 122.466 193.449 122.723 192.975 122.909C192.502 123.091 191.969 123.182 191.379 123.182ZM200.577 123.182C199.759 123.182 199.055 122.989 198.464 122.602C197.873 122.216 197.418 121.684 197.1 121.006C196.782 120.328 196.623 119.553 196.623 118.682C196.623 117.795 196.786 117.013 197.112 116.335C197.441 115.653 197.899 115.121 198.487 114.739C199.077 114.352 199.767 114.159 200.555 114.159C201.168 114.159 201.721 114.273 202.214 114.5C202.706 114.727 203.11 115.045 203.424 115.455C203.738 115.864 203.933 116.341 204.009 116.886H202.668C202.566 116.489 202.339 116.136 201.987 115.83C201.638 115.519 201.168 115.364 200.577 115.364C200.055 115.364 199.596 115.5 199.202 115.773C198.812 116.042 198.507 116.422 198.288 116.915C198.072 117.403 197.964 117.977 197.964 118.636C197.964 119.311 198.07 119.898 198.282 120.398C198.498 120.898 198.801 121.286 199.191 121.562C199.585 121.839 200.047 121.977 200.577 121.977C200.926 121.977 201.242 121.917 201.526 121.795C201.81 121.674 202.051 121.5 202.248 121.273C202.445 121.045 202.585 120.773 202.668 120.455H204.009C203.933 120.97 203.746 121.434 203.447 121.847C203.151 122.256 202.759 122.581 202.271 122.824C201.786 123.062 201.221 123.182 200.577 123.182ZM209.515 123.182C208.727 123.182 208.036 122.994 207.441 122.619C206.85 122.244 206.388 121.72 206.055 121.045C205.725 120.371 205.56 119.583 205.56 118.682C205.56 117.773 205.725 116.979 206.055 116.301C206.388 115.623 206.85 115.097 207.441 114.722C208.036 114.347 208.727 114.159 209.515 114.159C210.303 114.159 210.992 114.347 211.583 114.722C212.178 115.097 212.64 115.623 212.969 116.301C213.303 116.979 213.469 117.773 213.469 118.682C213.469 119.583 213.303 120.371 212.969 121.045C212.64 121.72 212.178 122.244 211.583 122.619C210.992 122.994 210.303 123.182 209.515 123.182ZM209.515 121.977C210.113 121.977 210.606 121.824 210.992 121.517C211.379 121.21 211.665 120.807 211.85 120.307C212.036 119.807 212.129 119.265 212.129 118.682C212.129 118.098 212.036 117.555 211.85 117.051C211.665 116.547 211.379 116.14 210.992 115.83C210.606 115.519 210.113 115.364 209.515 115.364C208.916 115.364 208.424 115.519 208.038 115.83C207.651 116.14 207.365 116.547 207.18 117.051C206.994 117.555 206.901 118.098 206.901 118.682C206.901 119.265 206.994 119.807 207.18 120.307C207.365 120.807 207.651 121.21 208.038 121.517C208.424 121.824 208.916 121.977 209.515 121.977ZM216.857 117.75V123H215.516V114.273H216.812V115.636H216.925C217.13 115.193 217.441 114.837 217.857 114.568C218.274 114.295 218.812 114.159 219.471 114.159C220.062 114.159 220.579 114.28 221.022 114.523C221.465 114.761 221.81 115.125 222.056 115.614C222.302 116.098 222.425 116.712 222.425 117.455V123H221.085V117.545C221.085 116.86 220.906 116.326 220.55 115.943C220.194 115.557 219.706 115.364 219.085 115.364C218.656 115.364 218.274 115.456 217.937 115.642C217.603 115.828 217.34 116.098 217.147 116.455C216.954 116.811 216.857 117.242 216.857 117.75ZM228.421 123.182C227.633 123.182 226.942 122.994 226.347 122.619C225.756 122.244 225.294 121.72 224.961 121.045C224.631 120.371 224.467 119.583 224.467 118.682C224.467 117.773 224.631 116.979 224.961 116.301C225.294 115.623 225.756 115.097 226.347 114.722C226.942 114.347 227.633 114.159 228.421 114.159C229.209 114.159 229.898 114.347 230.489 114.722C231.084 115.097 231.546 115.623 231.876 116.301C232.209 116.979 232.376 117.773 232.376 118.682C232.376 119.583 232.209 120.371 231.876 121.045C231.546 121.72 231.084 122.244 230.489 122.619C229.898 122.994 229.209 123.182 228.421 123.182ZM228.421 121.977C229.02 121.977 229.512 121.824 229.898 121.517C230.285 121.21 230.571 120.807 230.756 120.307C230.942 119.807 231.035 119.265 231.035 118.682C231.035 118.098 230.942 117.555 230.756 117.051C230.571 116.547 230.285 116.14 229.898 115.83C229.512 115.519 229.02 115.364 228.421 115.364C227.823 115.364 227.33 115.519 226.944 115.83C226.558 116.14 226.272 116.547 226.086 117.051C225.9 117.555 225.808 118.098 225.808 118.682C225.808 119.265 225.9 119.807 226.086 120.307C226.272 120.807 226.558 121.21 226.944 121.517C227.33 121.824 227.823 121.977 228.421 121.977ZM234.423 123V114.273H235.718V115.636H235.832C236.013 115.17 236.307 114.809 236.712 114.551C237.118 114.29 237.604 114.159 238.173 114.159C238.748 114.159 239.228 114.29 239.61 114.551C239.996 114.809 240.298 115.17 240.513 115.636H240.604C240.828 115.186 241.163 114.828 241.61 114.562C242.057 114.294 242.593 114.159 243.218 114.159C243.998 114.159 244.637 114.403 245.133 114.892C245.629 115.377 245.877 116.133 245.877 117.159V123H244.536V117.159C244.536 116.515 244.36 116.055 244.008 115.778C243.656 115.502 243.241 115.364 242.763 115.364C242.15 115.364 241.674 115.549 241.337 115.92C241 116.288 240.832 116.754 240.832 117.318V123H239.468V117.023C239.468 116.527 239.307 116.127 238.985 115.824C238.663 115.517 238.248 115.364 237.741 115.364C237.392 115.364 237.067 115.456 236.763 115.642C236.464 115.828 236.222 116.085 236.036 116.415C235.854 116.741 235.763 117.117 235.763 117.545V123H234.423ZM248.329 123V114.273H249.67V123H248.329ZM249.011 112.818C248.749 112.818 248.524 112.729 248.335 112.551C248.149 112.373 248.056 112.159 248.056 111.909C248.056 111.659 248.149 111.445 248.335 111.267C248.524 111.089 248.749 111 249.011 111C249.272 111 249.496 111.089 249.681 111.267C249.871 111.445 249.965 111.659 249.965 111.909C249.965 112.159 249.871 112.373 249.681 112.551C249.496 112.729 249.272 112.818 249.011 112.818ZM254.694 123.205C254.141 123.205 253.639 123.1 253.188 122.892C252.737 122.68 252.379 122.375 252.114 121.977C251.849 121.576 251.717 121.091 251.717 120.523C251.717 120.023 251.815 119.617 252.012 119.307C252.209 118.992 252.472 118.746 252.802 118.568C253.131 118.39 253.495 118.258 253.893 118.17C254.294 118.08 254.698 118.008 255.103 117.955C255.633 117.886 256.063 117.835 256.393 117.801C256.726 117.763 256.969 117.701 257.12 117.614C257.275 117.527 257.353 117.375 257.353 117.159V117.114C257.353 116.553 257.2 116.117 256.893 115.807C256.59 115.496 256.129 115.341 255.512 115.341C254.872 115.341 254.37 115.481 254.006 115.761C253.643 116.042 253.387 116.341 253.239 116.659L251.967 116.205C252.194 115.674 252.497 115.261 252.876 114.966C253.258 114.667 253.675 114.458 254.126 114.341C254.58 114.22 255.027 114.159 255.467 114.159C255.747 114.159 256.069 114.193 256.433 114.261C256.8 114.326 257.154 114.46 257.495 114.665C257.84 114.869 258.126 115.178 258.353 115.591C258.58 116.004 258.694 116.557 258.694 117.25V123H257.353V121.818H257.285C257.194 122.008 257.042 122.21 256.83 122.426C256.618 122.642 256.336 122.826 255.984 122.977C255.631 123.129 255.201 123.205 254.694 123.205ZM254.898 122C255.429 122 255.876 121.896 256.239 121.688C256.607 121.479 256.883 121.21 257.069 120.881C257.258 120.551 257.353 120.205 257.353 119.841V118.614C257.296 118.682 257.171 118.744 256.978 118.801C256.789 118.854 256.569 118.902 256.319 118.943C256.073 118.981 255.832 119.015 255.597 119.045C255.366 119.072 255.179 119.095 255.035 119.114C254.686 119.159 254.361 119.233 254.058 119.335C253.758 119.434 253.516 119.583 253.33 119.784C253.148 119.981 253.058 120.25 253.058 120.591C253.058 121.057 253.23 121.409 253.575 121.648C253.923 121.883 254.364 122 254.898 122Z" fill="black" fill-opacity="0.74"/>
<path d="M129.337 96.4773C126.712 96.4773 124.376 96.0511 122.331 95.1989C120.297 94.3352 118.7 93.1591 117.541 91.6705C116.382 90.1818 115.803 88.4943 115.803 86.608C115.803 85.1534 116.132 83.8182 116.791 82.6023C117.462 81.375 118.371 80.358 119.518 79.5511C120.666 78.733 121.95 78.2102 123.371 77.983V77.7443C121.507 77.3693 119.996 76.4659 118.837 75.0341C117.678 73.5909 117.098 71.9148 117.098 70.0057C117.098 68.1989 117.626 66.5909 118.683 65.1818C119.74 63.7614 121.189 62.6477 123.03 61.8409C124.882 61.0227 126.984 60.6136 129.337 60.6136C131.689 60.6136 133.786 61.0227 135.626 61.8409C137.479 62.6591 138.933 63.7784 139.99 65.1989C141.047 66.608 141.581 68.2102 141.592 70.0057C141.581 71.9261 140.99 73.6023 139.82 75.0341C138.649 76.4659 137.149 77.3693 135.32 77.7443V77.983C136.717 78.2102 137.984 78.733 139.121 79.5511C140.268 80.358 141.178 81.375 141.848 82.6023C142.53 83.8182 142.876 85.1534 142.888 86.608C142.876 88.4943 142.291 90.1818 141.132 91.6705C139.973 93.1591 138.371 94.3352 136.325 95.1989C134.291 96.0511 131.962 96.4773 129.337 96.4773ZM129.337 91.0568C130.507 91.0568 131.53 90.8466 132.405 90.4261C133.28 89.9943 133.962 89.4034 134.45 88.6534C134.95 87.892 135.2 87.017 135.2 86.0284C135.2 85.017 134.945 84.125 134.433 83.3523C133.922 82.5682 133.229 81.9545 132.354 81.5114C131.479 81.0568 130.473 80.8295 129.337 80.8295C128.212 80.8295 127.206 81.0568 126.32 81.5114C125.433 81.9545 124.734 82.5682 124.223 83.3523C123.723 84.125 123.473 85.017 123.473 86.0284C123.473 87.017 123.717 87.892 124.206 88.6534C124.695 89.4034 125.382 89.9943 126.268 90.4261C127.155 90.8466 128.178 91.0568 129.337 91.0568ZM129.337 75.4602C130.314 75.4602 131.183 75.2614 131.945 74.8636C132.706 74.4659 133.303 73.9148 133.734 73.2102C134.166 72.5057 134.382 71.6932 134.382 70.7727C134.382 69.8636 134.166 69.0682 133.734 68.3864C133.303 67.6932 132.712 67.1534 131.962 66.767C131.212 66.3693 130.337 66.1705 129.337 66.1705C128.348 66.1705 127.473 66.3693 126.712 66.767C125.95 67.1534 125.354 67.6932 124.922 68.3864C124.501 69.0682 124.291 69.8636 124.291 70.7727C124.291 71.6932 124.507 72.5057 124.939 73.2102C125.371 73.9148 125.967 74.4659 126.729 74.8636C127.49 75.2614 128.359 75.4602 129.337 75.4602ZM161.736 96.767C158.804 96.7557 156.281 96.0341 154.168 94.6023C152.065 93.1705 150.446 91.0966 149.31 88.3807C148.185 85.6648 147.628 82.3977 147.639 78.5795C147.639 74.7727 148.202 71.5284 149.327 68.8466C150.463 66.1648 152.082 64.125 154.185 62.7273C156.298 61.3182 158.815 60.6136 161.736 60.6136C164.656 60.6136 167.168 61.3182 169.27 62.7273C171.384 64.1364 173.009 66.1818 174.145 68.8636C175.281 71.5341 175.844 74.7727 175.832 78.5795C175.832 82.4091 175.264 85.6818 174.128 88.3977C173.003 91.1136 171.389 93.1875 169.287 94.6193C167.185 96.0511 164.668 96.767 161.736 96.767ZM161.736 90.6477C163.736 90.6477 165.332 89.642 166.526 87.6307C167.719 85.6193 168.31 82.6023 168.298 78.5795C168.298 75.9318 168.026 73.7273 167.48 71.9659C166.946 70.2045 166.185 68.8807 165.196 67.9943C164.219 67.108 163.065 66.6648 161.736 66.6648C159.747 66.6648 158.156 67.6591 156.963 69.6477C155.77 71.6364 155.168 74.6136 155.156 78.5795C155.156 81.2614 155.423 83.5 155.957 85.2955C156.503 87.0795 157.27 88.4205 158.259 89.3182C159.247 90.2045 160.406 90.6477 161.736 90.6477ZM200.203 89.4545V87.6136C200.203 86.2159 200.499 84.9318 201.089 83.7614C201.692 82.5795 202.561 81.6364 203.697 80.9318C204.845 80.2159 206.243 79.858 207.891 79.858C209.561 79.858 210.964 80.2102 212.101 80.9148C213.249 81.6193 214.112 82.5625 214.692 83.7443C215.283 84.9148 215.578 86.2045 215.578 87.6136V89.4545C215.578 90.8523 215.283 92.142 214.692 93.3239C214.101 94.4943 213.232 95.4318 212.084 96.1364C210.936 96.8523 209.538 97.2102 207.891 97.2102C206.22 97.2102 204.817 96.8523 203.68 96.1364C202.544 95.4318 201.68 94.4943 201.089 93.3239C200.499 92.142 200.203 90.8523 200.203 89.4545ZM205.163 87.6136V89.4545C205.163 90.2614 205.357 91.0227 205.743 91.7386C206.141 92.4545 206.857 92.8125 207.891 92.8125C208.925 92.8125 209.629 92.4602 210.004 91.7557C210.391 91.0511 210.584 90.2841 210.584 89.4545V87.6136C210.584 86.7841 210.402 86.0114 210.038 85.2955C209.675 84.5795 208.959 84.2216 207.891 84.2216C206.868 84.2216 206.158 84.5795 205.76 85.2955C205.362 86.0114 205.163 86.7841 205.163 87.6136ZM182.288 69.4773V67.6364C182.288 66.2273 182.589 64.9375 183.192 63.767C183.794 62.5852 184.663 61.642 185.8 60.9375C186.947 60.233 188.334 59.8807 189.959 59.8807C191.641 59.8807 193.05 60.233 194.186 60.9375C195.322 61.642 196.186 62.5852 196.777 63.767C197.368 64.9375 197.663 66.2273 197.663 67.6364V69.4773C197.663 70.8864 197.362 72.1761 196.76 73.3466C196.169 74.517 195.3 75.4545 194.152 76.1591C193.016 76.8523 191.618 77.1989 189.959 77.1989C188.3 77.1989 186.896 76.8466 185.749 76.142C184.612 75.4261 183.749 74.4886 183.158 73.3295C182.578 72.1591 182.288 70.875 182.288 69.4773ZM187.283 67.6364V69.4773C187.283 70.3068 187.476 71.0739 187.862 71.7784C188.26 72.483 188.959 72.8352 189.959 72.8352C191.004 72.8352 191.714 72.483 192.089 71.7784C192.476 71.0739 192.669 70.3068 192.669 69.4773V67.6364C192.669 66.8068 192.487 66.0341 192.124 65.3182C191.76 64.6023 191.038 64.2443 189.959 64.2443C188.947 64.2443 188.249 64.608 187.862 65.3352C187.476 66.0625 187.283 66.8295 187.283 67.6364ZM184.538 96L208.538 61.0909H213.004L189.004 96H184.538Z" fill="black"/>
<defs>
<filter id="filter0_d_4_93" x="28.1" y="0.1" width="280.8" height="179.8" filterUnits="userSpaceOnUse" color-interpolation-filters="sRGB">
<feFlood flood-opacity="0" result="BackgroundImageFix"/>
<feColorMatrix in="SourceAlpha" type="matrix" values="0 0 0 0 0 0 0 0 0 0 0 0 0 0 0 0 0 0 127 0" result="hardAlpha"/>
<feOffset dy="4"/>
<feGaussianBlur stdDeviation="10.45"/>
<feComposite in2="hardAlpha" operator="out"/>
<feColorMatrix type="matrix" values="0 0 0 0 0 0 0 0 0 0 0 0 0 0 0 0 0 0 0.25 0"/>
<feBlend mode="normal" in2="BackgroundImageFix" result="effect1_dropShadow_4_93"/>
<feBlend mode="normal" in="SourceGraphic" in2="effect1_dropShadow_4_93" result="shape"/>
</filter>
</defs>
</svg>
